<?xml version="1.0" encoding="UTF-8" standalone="no"?>
<!DOCTYPE svg PUBLIC "-//W3C//DTD SVG 1.1//EN"
 "http://www.w3.org/Graphics/SVG/1.1/DTD/svg11.dtd">
<!-- Generated by graphviz version 2.47.0 (20210316.0004)
 -->
<!-- Title: dependencies Pages: 1 -->
<svg width="2499pt" height="284pt"
 viewBox="0.00 0.00 2499.00 284.00" xmlns="http://www.w3.org/2000/svg" xmlns:xlink="http://www.w3.org/1999/xlink">
<g id="graph0" class="graph" transform="scale(1 1) rotate(0) translate(4 280)">
<title>dependencies</title>
<polygon fill="white" stroke="transparent" points="-4,4 -4,-280 2495,-280 2495,4 -4,4"/>
<text text-anchor="start" x="1224.51" y="-42.4" font-family="Times-12" font-weight="bold" font-size="14.00">Legend</text>
<polygon fill="#ffffb3" stroke="transparent" points="1011.5,-10 1011.5,-30 1031.5,-30 1031.5,-10 1011.5,-10"/>
<text text-anchor="start" x="1035.13" y="-15.4" font-family="Times-12" font-size="14.00"> &#160;Declarations</text>
<polygon fill="#8dd3c7" stroke="transparent" points="1124.5,-10 1124.5,-30 1144.5,-30 1144.5,-10 1124.5,-10"/>
<text text-anchor="start" x="1148.23" y="-15.4" font-family="Times-12" font-size="14.00"> &#160;Module</text>
<polygon fill="#80b1d3" stroke="transparent" points="1210.5,-10 1210.5,-30 1230.5,-30 1230.5,-10 1210.5,-10"/>
<text text-anchor="start" x="1234.28" y="-15.4" font-family="Times-12" font-size="14.00"> &#160;Bootstrap</text>
<polygon fill="#fdb462" stroke="transparent" points="1307.5,-10 1307.5,-30 1327.5,-30 1327.5,-10 1307.5,-10"/>
<text text-anchor="start" x="1331.17" y="-15.4" font-family="Times-12" font-size="14.00"> &#160;Providers</text>
<polygon fill="#fb8072" stroke="transparent" points="1403.5,-10 1403.5,-30 1423.5,-30 1423.5,-10 1403.5,-10"/>
<text text-anchor="start" x="1427.23" y="-15.4" font-family="Times-12" font-size="14.00"> &#160;Exports</text>
<g id="clust1" class="cluster">
<title>cluster_AppModule</title>
<polygon fill="none" stroke="black" stroke-dasharray="1,5" points="8,-70 8,-268 2483,-268 2483,-70 8,-70"/>
</g>
<g id="clust20" class="cluster">
<title>cluster_AppModule_providers</title>
<polygon fill="none" stroke="black" points="2259,-78 2259,-130 2475,-130 2475,-78 2259,-78"/>
</g>
<g id="clust17" class="cluster">
<title>cluster_AppModule_imports</title>
<polygon fill="none" stroke="black" points="2107,-78 2107,-130 2251,-130 2251,-78 2107,-78"/>
</g>
<g id="clust2" class="cluster">
<title>cluster_AppModule_declarations</title>
<polygon fill="none" stroke="black" points="16,-78 16,-130 2099,-130 2099,-78 16,-78"/>
</g>
<g id="clust19" class="cluster">
<title>cluster_AppModule_bootstrap</title>
<polygon fill="none" stroke="black" points="1188,-208 1188,-260 1312,-260 1312,-208 1188,-208"/>
</g>
<!-- AdminComponent -->
<g id="node1" class="node">
<title>AdminComponent</title>
<polygon fill="#ffffb3" stroke="black" points="2091.22,-122 1970.78,-122 1970.78,-86 2091.22,-86 2091.22,-122"/>
<text text-anchor="middle" x="2031" y="-99.8" font-family="Times,serif" font-size="14.00">AdminComponent</text>
</g>
<!-- AppModule -->
<g id="node15" class="node">
<title>AppModule</title>
<polygon fill="#8dd3c7" stroke="black" points="1291.66,-187 1288.66,-191 1267.66,-191 1264.66,-187 1208.34,-187 1208.34,-151 1291.66,-151 1291.66,-187"/>
<text text-anchor="middle" x="1250" y="-164.8" font-family="Times,serif" font-size="14.00">AppModule</text>
</g>
<!-- AdminComponent&#45;&gt;AppModule -->
<g id="edge1" class="edge">
<title>AdminComponent&#45;&gt;AppModule</title>
<path fill="none" stroke="black" d="M2031,-122.03C2031,-142.77 2031,-174 2031,-174 2031,-174 1301.71,-174 1301.71,-174"/>
<polygon fill="black" stroke="black" points="1301.71,-170.5 1291.71,-174 1301.71,-177.5 1301.71,-170.5"/>
</g>
<!-- AppComponent -->
<g id="node2" class="node">
<title>AppComponent</title>
<polygon fill="#ffffb3" stroke="black" points="1952.94,-122 1847.06,-122 1847.06,-86 1952.94,-86 1952.94,-122"/>
<text text-anchor="middle" x="1900" y="-99.8" font-family="Times,serif" font-size="14.00">AppComponent</text>
</g>
<!-- AppComponent&#45;&gt;AppModule -->
<g id="edge2" class="edge">
<title>AppComponent&#45;&gt;AppModule</title>
<path fill="none" stroke="black" d="M1900,-122.11C1900,-141.34 1900,-169 1900,-169 1900,-169 1302.15,-169 1302.15,-169"/>
<polygon fill="black" stroke="black" points="1302.15,-165.5 1292.15,-169 1302.15,-172.5 1302.15,-165.5"/>
</g>
<!-- BaseComponentComponent -->
<g id="node3" class="node">
<title>BaseComponentComponent</title>
<polygon fill="#ffffb3" stroke="black" points="1828.88,-122 1655.12,-122 1655.12,-86 1828.88,-86 1828.88,-122"/>
<text text-anchor="middle" x="1742" y="-99.8" font-family="Times,serif" font-size="14.00">BaseComponentComponent</text>
</g>
<!-- BaseComponentComponent&#45;&gt;AppModule -->
<g id="edge3" class="edge">
<title>BaseComponentComponent&#45;&gt;AppModule</title>
<path fill="none" stroke="black" d="M1742,-122.3C1742,-140.27 1742,-165 1742,-165 1742,-165 1301.95,-165 1301.95,-165"/>
<polygon fill="black" stroke="black" points="1301.95,-161.5 1291.95,-165 1301.95,-168.5 1301.95,-161.5"/>
</g>
<!-- BillComponent -->
<g id="node4" class="node">
<title>BillComponent</title>
<polygon fill="#ffffb3" stroke="black" points="1637.34,-122 1534.66,-122 1534.66,-86 1637.34,-86 1637.34,-122"/>
<text text-anchor="middle" x="1586" y="-99.8" font-family="Times,serif" font-size="14.00">BillComponent</text>
</g>
<!-- BillComponent&#45;&gt;AppModule -->
<g id="edge4" class="edge">
<title>BillComponent&#45;&gt;AppModule</title>
<path fill="none" stroke="black" d="M1586,-122.03C1586,-138.4 1586,-160 1586,-160 1586,-160 1301.88,-160 1301.88,-160"/>
<polygon fill="black" stroke="black" points="1301.88,-156.5 1291.88,-160 1301.88,-163.5 1301.88,-156.5"/>
</g>
<!-- CardComponent -->
<g id="node5" class="node">
<title>CardComponent</title>
<polygon fill="#ffffb3" stroke="black" points="1517.05,-122 1408.95,-122 1408.95,-86 1517.05,-86 1517.05,-122"/>
<text text-anchor="middle" x="1463" y="-99.8" font-family="Times,serif" font-size="14.00">CardComponent</text>
</g>
<!-- CardComponent&#45;&gt;AppModule -->
<g id="edge5" class="edge">
<title>CardComponent&#45;&gt;AppModule</title>
<path fill="none" stroke="black" d="M1463,-122.19C1463,-137.18 1463,-156 1463,-156 1463,-156 1301.83,-156 1301.83,-156"/>
<polygon fill="black" stroke="black" points="1301.83,-152.5 1291.83,-156 1301.83,-159.5 1301.83,-152.5"/>
</g>
<!-- DialogComponent -->
<g id="node6" class="node">
<title>DialogComponent</title>
<polygon fill="#ffffb3" stroke="black" points="1390.94,-122 1271.06,-122 1271.06,-86 1390.94,-86 1390.94,-122"/>
<text text-anchor="middle" x="1331" y="-99.8" font-family="Times,serif" font-size="14.00">DialogComponent</text>
</g>
<!-- DialogComponent&#45;&gt;AppModule -->
<g id="edge6" class="edge">
<title>DialogComponent&#45;&gt;AppModule</title>
<path fill="none" stroke="black" d="M1281.56,-122.11C1281.56,-122.11 1281.56,-140.99 1281.56,-140.99"/>
<polygon fill="black" stroke="black" points="1278.06,-140.99 1281.56,-150.99 1285.06,-140.99 1278.06,-140.99"/>
</g>
<!-- FamilyMemberComponent -->
<g id="node7" class="node">
<title>FamilyMemberComponent</title>
<polygon fill="#ffffb3" stroke="black" points="1253.43,-122 1084.57,-122 1084.57,-86 1253.43,-86 1253.43,-122"/>
<text text-anchor="middle" x="1169" y="-99.8" font-family="Times,serif" font-size="14.00">FamilyMemberComponent</text>
</g>
<!-- FamilyMemberComponent&#45;&gt;AppModule -->
<g id="edge7" class="edge">
<title>FamilyMemberComponent&#45;&gt;AppModule</title>
<path fill="none" stroke="black" d="M1230.69,-122.11C1230.69,-122.11 1230.69,-140.99 1230.69,-140.99"/>
<polygon fill="black" stroke="black" points="1227.19,-140.99 1230.69,-150.99 1234.19,-140.99 1227.19,-140.99"/>
</g>
<!-- HomeComponent -->
<g id="node8" class="node">
<title>HomeComponent</title>
<polygon fill="#ffffb3" stroke="black" points="1066.55,-122 951.45,-122 951.45,-86 1066.55,-86 1066.55,-122"/>
<text text-anchor="middle" x="1009" y="-99.8" font-family="Times,serif" font-size="14.00">HomeComponent</text>
</g>
<!-- HomeComponent&#45;&gt;AppModule -->
<g id="edge8" class="edge">
<title>HomeComponent&#45;&gt;AppModule</title>
<path fill="none" stroke="black" d="M1009,-122.19C1009,-137.18 1009,-156 1009,-156 1009,-156 1198.3,-156 1198.3,-156"/>
<polygon fill="black" stroke="black" points="1198.3,-159.5 1208.3,-156 1198.3,-152.5 1198.3,-159.5"/>
</g>
<!-- InvoiceComponent -->
<g id="node9" class="node">
<title>InvoiceComponent</title>
<polygon fill="#ffffb3" stroke="black" points="933.81,-122 810.19,-122 810.19,-86 933.81,-86 933.81,-122"/>
<text text-anchor="middle" x="872" y="-99.8" font-family="Times,serif" font-size="14.00">InvoiceComponent</text>
</g>
<!-- InvoiceComponent&#45;&gt;AppModule -->
<g id="edge9" class="edge">
<title>InvoiceComponent&#45;&gt;AppModule</title>
<path fill="none" stroke="black" d="M872,-122.03C872,-138.4 872,-160 872,-160 872,-160 1198.1,-160 1198.1,-160"/>
<polygon fill="black" stroke="black" points="1198.1,-163.5 1208.1,-160 1198.1,-156.5 1198.1,-163.5"/>
</g>
<!-- LoginComponent -->
<g id="node10" class="node">
<title>LoginComponent</title>
<polygon fill="#ffffb3" stroke="black" points="792.28,-122 677.72,-122 677.72,-86 792.28,-86 792.28,-122"/>
<text text-anchor="middle" x="735" y="-99.8" font-family="Times,serif" font-size="14.00">LoginComponent</text>
</g>
<!-- LoginComponent&#45;&gt;AppModule -->
<g id="edge10" class="edge">
<title>LoginComponent&#45;&gt;AppModule</title>
<path fill="none" stroke="black" d="M735,-122.3C735,-140.27 735,-165 735,-165 735,-165 1198.29,-165 1198.29,-165"/>
<polygon fill="black" stroke="black" points="1198.29,-168.5 1208.29,-165 1198.29,-161.5 1198.29,-168.5"/>
</g>
<!-- NavigationComponent -->
<g id="node11" class="node">
<title>NavigationComponent</title>
<polygon fill="#ffffb3" stroke="black" points="659.54,-122 516.46,-122 516.46,-86 659.54,-86 659.54,-122"/>
<text text-anchor="middle" x="588" y="-99.8" font-family="Times,serif" font-size="14.00">NavigationComponent</text>
</g>
<!-- NavigationComponent&#45;&gt;AppModule -->
<g id="edge11" class="edge">
<title>NavigationComponent&#45;&gt;AppModule</title>
<path fill="none" stroke="black" d="M588,-122.11C588,-141.34 588,-169 588,-169 588,-169 1198.34,-169 1198.34,-169"/>
<polygon fill="black" stroke="black" points="1198.34,-172.5 1208.34,-169 1198.34,-165.5 1198.34,-172.5"/>
</g>
<!-- RegisterComponent -->
<g id="node12" class="node">
<title>RegisterComponent</title>
<polygon fill="#ffffb3" stroke="black" points="497.98,-122 370.02,-122 370.02,-86 497.98,-86 497.98,-122"/>
<text text-anchor="middle" x="434" y="-99.8" font-family="Times,serif" font-size="14.00">RegisterComponent</text>
</g>
<!-- RegisterComponent&#45;&gt;AppModule -->
<g id="edge12" class="edge">
<title>RegisterComponent&#45;&gt;AppModule</title>
<path fill="none" stroke="black" d="M434,-122.03C434,-142.77 434,-174 434,-174 434,-174 1198.13,-174 1198.13,-174"/>
<polygon fill="black" stroke="black" points="1198.13,-177.5 1208.13,-174 1198.13,-170.5 1198.13,-177.5"/>
</g>
<!-- SubscriptionComponent -->
<g id="node13" class="node">
<title>SubscriptionComponent</title>
<polygon fill="#ffffb3" stroke="black" points="352.11,-122 199.89,-122 199.89,-86 352.11,-86 352.11,-122"/>
<text text-anchor="middle" x="276" y="-99.8" font-family="Times,serif" font-size="14.00">SubscriptionComponent</text>
</g>
<!-- SubscriptionComponent&#45;&gt;AppModule -->
<g id="edge13" class="edge">
<title>SubscriptionComponent&#45;&gt;AppModule</title>
<path fill="none" stroke="black" d="M276,-122.29C276,-144.21 276,-178 276,-178 276,-178 1198.15,-178 1198.15,-178"/>
<polygon fill="black" stroke="black" points="1198.15,-181.5 1208.15,-178 1198.15,-174.5 1198.15,-181.5"/>
</g>
<!-- UnauthorizedComponent -->
<g id="node14" class="node">
<title>UnauthorizedComponent</title>
<polygon fill="#ffffb3" stroke="black" points="181.53,-122 24.47,-122 24.47,-86 181.53,-86 181.53,-122"/>
<text text-anchor="middle" x="103" y="-99.8" font-family="Times,serif" font-size="14.00">UnauthorizedComponent</text>
</g>
<!-- UnauthorizedComponent&#45;&gt;AppModule -->
<g id="edge14" class="edge">
<title>UnauthorizedComponent&#45;&gt;AppModule</title>
<path fill="none" stroke="black" d="M103,-122.32C103,-145.66 103,-183 103,-183 103,-183 1198.16,-183 1198.16,-183"/>
<polygon fill="black" stroke="black" points="1198.16,-186.5 1208.16,-183 1198.16,-179.5 1198.16,-186.5"/>
</g>
<!-- AppComponent  -->
<g id="node17" class="node">
<title>AppComponent </title>
<polygon fill="#80b1d3" stroke="black" points="1304.44,-252 1195.56,-252 1195.56,-216 1304.44,-216 1304.44,-252"/>
<text text-anchor="middle" x="1250" y="-229.8" font-family="Times,serif" font-size="14.00">AppComponent </text>
</g>
<!-- AppModule&#45;&gt;AppComponent  -->
<g id="edge16" class="edge">
<title>AppModule&#45;&gt;AppComponent </title>
<path fill="none" stroke="black" stroke-dasharray="1,5" d="M1250,-187.11C1250,-187.11 1250,-205.99 1250,-205.99"/>
<polygon fill="black" stroke="black" points="1246.5,-205.99 1250,-215.99 1253.5,-205.99 1246.5,-205.99"/>
</g>
<!-- AppRoutingModule -->
<g id="node16" class="node">
<title>AppRoutingModule</title>
<polygon fill="#8dd3c7" stroke="black" points="2243.27,-122 2240.27,-126 2219.27,-126 2216.27,-122 2114.73,-122 2114.73,-86 2243.27,-86 2243.27,-122"/>
<text text-anchor="middle" x="2179" y="-99.8" font-family="Times,serif" font-size="14.00">AppRoutingModule</text>
</g>
<!-- AppRoutingModule&#45;&gt;AppModule -->
<g id="edge15" class="edge">
<title>AppRoutingModule&#45;&gt;AppModule</title>
<path fill="none" stroke="black" d="M2179,-122.29C2179,-144.21 2179,-178 2179,-178 2179,-178 1301.72,-178 1301.72,-178"/>
<polygon fill="black" stroke="black" points="1301.72,-174.5 1291.72,-178 1301.72,-181.5 1301.72,-174.5"/>
</g>
<!-- HttpInterceptorService -->
<g id="node18" class="node">
<title>HttpInterceptorService</title>
<ellipse fill="#fdb462" stroke="black" cx="2367" cy="-104" rx="99.53" ry="18"/>
<text text-anchor="middle" x="2367" y="-99.8" font-family="Times,serif" font-size="14.00">HttpInterceptorService</text>
</g>
<!-- HttpInterceptorService&#45;&gt;AppModule -->
<g id="edge17" class="edge">
<title>HttpInterceptorService&#45;&gt;AppModule</title>
<path fill="none" stroke="black" d="M2367,-122.32C2367,-145.66 2367,-183 2367,-183 2367,-183 1301.75,-183 1301.75,-183"/>
<polygon fill="black" stroke="black" points="1301.75,-179.5 1291.75,-183 1301.75,-186.5 1301.75,-179.5"/>
</g>
</g>
</svg>
