<?xml version="1.0" encoding="UTF-8" standalone="no"?>
<!DOCTYPE svg PUBLIC "-//W3C//DTD SVG 1.1//EN"
 "http://www.w3.org/Graphics/SVG/1.1/DTD/svg11.dtd">
<!-- Generated by graphviz version 2.47.0 (20210316.0004)
 -->
<!-- Title: dependencies Pages: 1 -->
<svg width="2499pt" height="284pt"
 viewBox="0.00 0.00 2499.00 284.00" xmlns="http://www.w3.org/2000/svg" xmlns:xlink="http://www.w3.org/1999/xlink">
<g id="graph0" class="graph" transform="scale(1 1) rotate(0) translate(4 280)">
<title>dependencies</title>
<polygon fill="white" stroke="transparent" points="-4,4 -4,-280 2495,-280 2495,4 -4,4"/>
<text text-anchor="start" x="1224.51" y="-42.4" font-family="Times-12" font-weight="bold" font-size="14.00">Legend</text>
<polygon fill="#ffffb3" stroke="transparent" points="1011.5,-10 1011.5,-30 1031.5,-30 1031.5,-10 1011.5,-10"/>
<text text-anchor="start" x="1035.13" y="-15.4" font-family="Times-12" font-size="14.00"> &#160;Declarations</text>
<polygon fill="#8dd3c7" stroke="transparent" points="1124.5,-10 1124.5,-30 1144.5,-30 1144.5,-10 1124.5,-10"/>
<text text-anchor="start" x="1148.23" y="-15.4" font-family="Times-12" font-size="14.00"> &#160;Module</text>
<polygon fill="#80b1d3" stroke="transparent" points="1210.5,-10 1210.5,-30 1230.5,-30 1230.5,-10 1210.5,-10"/>
<text text-anchor="start" x="1234.28" y="-15.4" font-family="Times-12" font-size="14.00"> &#160;Bootstrap</text>
<polygon fill="#fdb462" stroke="transparent" points="1307.5,-10 1307.5,-30 1327.5,-30 1327.5,-10 1307.5,-10"/>
<text text-anchor="start" x="1331.17" y="-15.4" font-family="Times-12" font-size="14.00"> &#160;Providers</text>
<polygon fill="#fb8072" stroke="transparent" points="1403.5,-10 1403.5,-30 1423.5,-30 1423.5,-10 1403.5,-10"/>
<text text-anchor="start" x="1427.23" y="-15.4" font-family="Times-12" font-size="14.00"> &#160;Exports</text>
<g id="clust1" class="cluster">
<title>cluster_AppModule</title>
<polygon fill="none" stroke="black" stroke-dasharray="1,5" points="8,-70 8,-268 2483,-268 2483,-70 8,-70"/>
</g>
<g id="clust2" class="cluster">
<title>cluster_AppModule_declarations</title>
<polygon fill="none" stroke="black" points="392,-78 392,-130 2475,-130 2475,-78 392,-78"/>
</g>
<g id="clust17" class="cluster">
<title>cluster_AppModule_imports</title>
<polygon fill="none" stroke="black" points="240,-78 240,-130 384,-130 384,-78 240,-78"/>
</g>
<g id="clust19" class="cluster">
<title>cluster_AppModule_bootstrap</title>
<polygon fill="none" stroke="black" points="1254,-208 1254,-260 1378,-260 1378,-208 1254,-208"/>
</g>
<g id="clust20" class="cluster">
<title>cluster_AppModule_providers</title>
<polygon fill="none" stroke="black" points="16,-78 16,-130 232,-130 232,-78 16,-78"/>
</g>
<!-- AdminComponent -->
<g id="node1" class="node">
<title>AdminComponent</title>
<polygon fill="#ffffb3" stroke="black" points="2467.22,-122 2346.78,-122 2346.78,-86 2467.22,-86 2467.22,-122"/>
<text text-anchor="middle" x="2407" y="-99.8" font-family="Times,serif" font-size="14.00">AdminComponent</text>
</g>
<!-- AppModule -->
<g id="node15" class="node">
<title>AppModule</title>
<polygon fill="#8dd3c7" stroke="black" points="1357.66,-187 1354.66,-191 1333.66,-191 1330.66,-187 1274.34,-187 1274.34,-151 1357.66,-151 1357.66,-187"/>
<text text-anchor="middle" x="1316" y="-164.8" font-family="Times,serif" font-size="14.00">AppModule</text>
</g>
<!-- AdminComponent&#45;&gt;AppModule -->
<g id="edge1" class="edge">
<title>AdminComponent&#45;&gt;AppModule</title>
<path fill="none" stroke="black" d="M2407,-122.32C2407,-145.66 2407,-183 2407,-183 2407,-183 1367.77,-183 1367.77,-183"/>
<polygon fill="black" stroke="black" points="1367.77,-179.5 1357.77,-183 1367.77,-186.5 1367.77,-179.5"/>
</g>
<!-- AppComponent -->
<g id="node2" class="node">
<title>AppComponent</title>
<polygon fill="#ffffb3" stroke="black" points="2328.94,-122 2223.06,-122 2223.06,-86 2328.94,-86 2328.94,-122"/>
<text text-anchor="middle" x="2276" y="-99.8" font-family="Times,serif" font-size="14.00">AppComponent</text>
</g>
<!-- AppComponent&#45;&gt;AppModule -->
<g id="edge2" class="edge">
<title>AppComponent&#45;&gt;AppModule</title>
<path fill="none" stroke="black" d="M2276,-122.29C2276,-144.21 2276,-178 2276,-178 2276,-178 1367.87,-178 1367.87,-178"/>
<polygon fill="black" stroke="black" points="1367.87,-174.5 1357.87,-178 1367.87,-181.5 1367.87,-174.5"/>
</g>
<!-- BaseComponentComponent -->
<g id="node3" class="node">
<title>BaseComponentComponent</title>
<polygon fill="#ffffb3" stroke="black" points="2204.88,-122 2031.12,-122 2031.12,-86 2204.88,-86 2204.88,-122"/>
<text text-anchor="middle" x="2118" y="-99.8" font-family="Times,serif" font-size="14.00">BaseComponentComponent</text>
</g>
<!-- BaseComponentComponent&#45;&gt;AppModule -->
<g id="edge3" class="edge">
<title>BaseComponentComponent&#45;&gt;AppModule</title>
<path fill="none" stroke="black" d="M2118,-122.03C2118,-142.77 2118,-174 2118,-174 2118,-174 1367.71,-174 1367.71,-174"/>
<polygon fill="black" stroke="black" points="1367.71,-170.5 1357.71,-174 1367.71,-177.5 1367.71,-170.5"/>
</g>
<!-- BillComponent -->
<g id="node4" class="node">
<title>BillComponent</title>
<polygon fill="#ffffb3" stroke="black" points="2013.34,-122 1910.66,-122 1910.66,-86 2013.34,-86 2013.34,-122"/>
<text text-anchor="middle" x="1962" y="-99.8" font-family="Times,serif" font-size="14.00">BillComponent</text>
</g>
<!-- BillComponent&#45;&gt;AppModule -->
<g id="edge4" class="edge">
<title>BillComponent&#45;&gt;AppModule</title>
<path fill="none" stroke="black" d="M1962,-122.11C1962,-141.34 1962,-169 1962,-169 1962,-169 1367.89,-169 1367.89,-169"/>
<polygon fill="black" stroke="black" points="1367.89,-165.5 1357.89,-169 1367.89,-172.5 1367.89,-165.5"/>
</g>
<!-- CardComponent -->
<g id="node5" class="node">
<title>CardComponent</title>
<polygon fill="#ffffb3" stroke="black" points="1893.05,-122 1784.95,-122 1784.95,-86 1893.05,-86 1893.05,-122"/>
<text text-anchor="middle" x="1839" y="-99.8" font-family="Times,serif" font-size="14.00">CardComponent</text>
</g>
<!-- CardComponent&#45;&gt;AppModule -->
<g id="edge5" class="edge">
<title>CardComponent&#45;&gt;AppModule</title>
<path fill="none" stroke="black" d="M1839,-122.3C1839,-140.27 1839,-165 1839,-165 1839,-165 1367.92,-165 1367.92,-165"/>
<polygon fill="black" stroke="black" points="1367.92,-161.5 1357.92,-165 1367.92,-168.5 1367.92,-161.5"/>
</g>
<!-- DialogComponent -->
<g id="node6" class="node">
<title>DialogComponent</title>
<polygon fill="#ffffb3" stroke="black" points="1766.94,-122 1647.06,-122 1647.06,-86 1766.94,-86 1766.94,-122"/>
<text text-anchor="middle" x="1707" y="-99.8" font-family="Times,serif" font-size="14.00">DialogComponent</text>
</g>
<!-- DialogComponent&#45;&gt;AppModule -->
<g id="edge6" class="edge">
<title>DialogComponent&#45;&gt;AppModule</title>
<path fill="none" stroke="black" d="M1707,-122.03C1707,-138.4 1707,-160 1707,-160 1707,-160 1367.84,-160 1367.84,-160"/>
<polygon fill="black" stroke="black" points="1367.84,-156.5 1357.84,-160 1367.84,-163.5 1367.84,-156.5"/>
</g>
<!-- FamilyMemberComponent -->
<g id="node7" class="node">
<title>FamilyMemberComponent</title>
<polygon fill="#ffffb3" stroke="black" points="1629.43,-122 1460.57,-122 1460.57,-86 1629.43,-86 1629.43,-122"/>
<text text-anchor="middle" x="1545" y="-99.8" font-family="Times,serif" font-size="14.00">FamilyMemberComponent</text>
</g>
<!-- FamilyMemberComponent&#45;&gt;AppModule -->
<g id="edge7" class="edge">
<title>FamilyMemberComponent&#45;&gt;AppModule</title>
<path fill="none" stroke="black" d="M1545,-122.19C1545,-137.18 1545,-156 1545,-156 1545,-156 1367.74,-156 1367.74,-156"/>
<polygon fill="black" stroke="black" points="1367.74,-152.5 1357.74,-156 1367.74,-159.5 1367.74,-152.5"/>
</g>
<!-- HomeComponent -->
<g id="node8" class="node">
<title>HomeComponent</title>
<polygon fill="#ffffb3" stroke="black" points="1442.55,-122 1327.45,-122 1327.45,-86 1442.55,-86 1442.55,-122"/>
<text text-anchor="middle" x="1385" y="-99.8" font-family="Times,serif" font-size="14.00">HomeComponent</text>
</g>
<!-- HomeComponent&#45;&gt;AppModule -->
<g id="edge8" class="edge">
<title>HomeComponent&#45;&gt;AppModule</title>
<path fill="none" stroke="black" d="M1342.53,-122.11C1342.53,-122.11 1342.53,-140.99 1342.53,-140.99"/>
<polygon fill="black" stroke="black" points="1339.03,-140.99 1342.53,-150.99 1346.03,-140.99 1339.03,-140.99"/>
</g>
<!-- InvoiceComponent -->
<g id="node9" class="node">
<title>InvoiceComponent</title>
<polygon fill="#ffffb3" stroke="black" points="1309.81,-122 1186.19,-122 1186.19,-86 1309.81,-86 1309.81,-122"/>
<text text-anchor="middle" x="1248" y="-99.8" font-family="Times,serif" font-size="14.00">InvoiceComponent</text>
</g>
<!-- InvoiceComponent&#45;&gt;AppModule -->
<g id="edge9" class="edge">
<title>InvoiceComponent&#45;&gt;AppModule</title>
<path fill="none" stroke="black" d="M1291.91,-122.11C1291.91,-122.11 1291.91,-140.99 1291.91,-140.99"/>
<polygon fill="black" stroke="black" points="1288.41,-140.99 1291.91,-150.99 1295.41,-140.99 1288.41,-140.99"/>
</g>
<!-- LoginComponent -->
<g id="node10" class="node">
<title>LoginComponent</title>
<polygon fill="#ffffb3" stroke="black" points="1168.28,-122 1053.72,-122 1053.72,-86 1168.28,-86 1168.28,-122"/>
<text text-anchor="middle" x="1111" y="-99.8" font-family="Times,serif" font-size="14.00">LoginComponent</text>
</g>
<!-- LoginComponent&#45;&gt;AppModule -->
<g id="edge10" class="edge">
<title>LoginComponent&#45;&gt;AppModule</title>
<path fill="none" stroke="black" d="M1111,-122.19C1111,-137.18 1111,-156 1111,-156 1111,-156 1264.02,-156 1264.02,-156"/>
<polygon fill="black" stroke="black" points="1264.02,-159.5 1274.02,-156 1264.02,-152.5 1264.02,-159.5"/>
</g>
<!-- NavigationComponent -->
<g id="node11" class="node">
<title>NavigationComponent</title>
<polygon fill="#ffffb3" stroke="black" points="1035.54,-122 892.46,-122 892.46,-86 1035.54,-86 1035.54,-122"/>
<text text-anchor="middle" x="964" y="-99.8" font-family="Times,serif" font-size="14.00">NavigationComponent</text>
</g>
<!-- NavigationComponent&#45;&gt;AppModule -->
<g id="edge11" class="edge">
<title>NavigationComponent&#45;&gt;AppModule</title>
<path fill="none" stroke="black" d="M964,-122.03C964,-138.4 964,-160 964,-160 964,-160 1264.24,-160 1264.24,-160"/>
<polygon fill="black" stroke="black" points="1264.24,-163.5 1274.24,-160 1264.24,-156.5 1264.24,-163.5"/>
</g>
<!-- RegisterComponent -->
<g id="node12" class="node">
<title>RegisterComponent</title>
<polygon fill="#ffffb3" stroke="black" points="873.98,-122 746.02,-122 746.02,-86 873.98,-86 873.98,-122"/>
<text text-anchor="middle" x="810" y="-99.8" font-family="Times,serif" font-size="14.00">RegisterComponent</text>
</g>
<!-- RegisterComponent&#45;&gt;AppModule -->
<g id="edge12" class="edge">
<title>RegisterComponent&#45;&gt;AppModule</title>
<path fill="none" stroke="black" d="M810,-122.3C810,-140.27 810,-165 810,-165 810,-165 1264.16,-165 1264.16,-165"/>
<polygon fill="black" stroke="black" points="1264.16,-168.5 1274.16,-165 1264.16,-161.5 1264.16,-168.5"/>
</g>
<!-- SubscriptionComponent -->
<g id="node13" class="node">
<title>SubscriptionComponent</title>
<polygon fill="#ffffb3" stroke="black" points="728.11,-122 575.89,-122 575.89,-86 728.11,-86 728.11,-122"/>
<text text-anchor="middle" x="652" y="-99.8" font-family="Times,serif" font-size="14.00">SubscriptionComponent</text>
</g>
<!-- SubscriptionComponent&#45;&gt;AppModule -->
<g id="edge13" class="edge">
<title>SubscriptionComponent&#45;&gt;AppModule</title>
<path fill="none" stroke="black" d="M652,-122.11C652,-141.34 652,-169 652,-169 652,-169 1264.21,-169 1264.21,-169"/>
<polygon fill="black" stroke="black" points="1264.21,-172.5 1274.21,-169 1264.21,-165.5 1264.21,-172.5"/>
</g>
<!-- UnauthorizedComponent -->
<g id="node14" class="node">
<title>UnauthorizedComponent</title>
<polygon fill="#ffffb3" stroke="black" points="557.53,-122 400.47,-122 400.47,-86 557.53,-86 557.53,-122"/>
<text text-anchor="middle" x="479" y="-99.8" font-family="Times,serif" font-size="14.00">UnauthorizedComponent</text>
</g>
<!-- UnauthorizedComponent&#45;&gt;AppModule -->
<g id="edge14" class="edge">
<title>UnauthorizedComponent&#45;&gt;AppModule</title>
<path fill="none" stroke="black" d="M479,-122.03C479,-142.77 479,-174 479,-174 479,-174 1264.21,-174 1264.21,-174"/>
<polygon fill="black" stroke="black" points="1264.21,-177.5 1274.21,-174 1264.21,-170.5 1264.21,-177.5"/>
</g>
<!-- AppComponent  -->
<g id="node17" class="node">
<title>AppComponent </title>
<polygon fill="#80b1d3" stroke="black" points="1370.44,-252 1261.56,-252 1261.56,-216 1370.44,-216 1370.44,-252"/>
<text text-anchor="middle" x="1316" y="-229.8" font-family="Times,serif" font-size="14.00">AppComponent </text>
</g>
<!-- AppModule&#45;&gt;AppComponent  -->
<g id="edge16" class="edge">
<title>AppModule&#45;&gt;AppComponent </title>
<path fill="none" stroke="black" stroke-dasharray="1,5" d="M1316,-187.11C1316,-187.11 1316,-205.99 1316,-205.99"/>
<polygon fill="black" stroke="black" points="1312.5,-205.99 1316,-215.99 1319.5,-205.99 1312.5,-205.99"/>
</g>
<!-- AppRoutingModule -->
<g id="node16" class="node">
<title>AppRoutingModule</title>
<polygon fill="#8dd3c7" stroke="black" points="376.27,-122 373.27,-126 352.27,-126 349.27,-122 247.73,-122 247.73,-86 376.27,-86 376.27,-122"/>
<text text-anchor="middle" x="312" y="-99.8" font-family="Times,serif" font-size="14.00">AppRoutingModule</text>
</g>
<!-- AppRoutingModule&#45;&gt;AppModule -->
<g id="edge15" class="edge">
<title>AppRoutingModule&#45;&gt;AppModule</title>
<path fill="none" stroke="black" d="M312,-122.29C312,-144.21 312,-178 312,-178 312,-178 1264.14,-178 1264.14,-178"/>
<polygon fill="black" stroke="black" points="1264.14,-181.5 1274.14,-178 1264.14,-174.5 1264.14,-181.5"/>
</g>
<!-- HttpInterceptorService -->
<g id="node18" class="node">
<title>HttpInterceptorService</title>
<ellipse fill="#fdb462" stroke="black" cx="124" cy="-104" rx="99.53" ry="18"/>
<text text-anchor="middle" x="124" y="-99.8" font-family="Times,serif" font-size="14.00">HttpInterceptorService</text>
</g>
<!-- HttpInterceptorService&#45;&gt;AppModule -->
<g id="edge17" class="edge">
<title>HttpInterceptorService&#45;&gt;AppModule</title>
<path fill="none" stroke="black" d="M124,-122.32C124,-145.66 124,-183 124,-183 124,-183 1264.28,-183 1264.28,-183"/>
<polygon fill="black" stroke="black" points="1264.28,-186.5 1274.28,-183 1264.27,-179.5 1264.28,-186.5"/>
</g>
</g>
</svg>
